<svg width="27" height="28" viewBox="0 0 27 28" fill="none" xmlns="http://www.w3.org/2000/svg">
<path fill-rule="evenodd" clip-rule="evenodd" d="M9.50098 1.52002C9.50098 0.967735 9.05326 0.52002 8.50098 0.52002C7.94869 0.52002 7.50098 0.967735 7.50098 1.52002V3.01197H6.00098C2.69031 3.01197 0.000976562 5.68802 0.000976562 8.99588V11.4878V21.4556C0.000976562 24.7635 2.69031 27.4395 6.00098 27.4395H21.001C24.3116 27.4395 27.001 24.7635 27.001 21.4556V11.4878V8.99588C27.001 5.68802 24.3116 3.01197 21.001 3.01197H19.501V1.52002C19.501 0.967735 19.0533 0.52002 18.501 0.52002C17.9487 0.52002 17.501 0.967735 17.501 1.52002V3.01197H9.50098V1.52002ZM6.00098 5.01197H7.50098V6.50392C7.50098 7.05621 7.94869 7.50392 8.50098 7.50392C9.05326 7.50392 9.50098 7.05621 9.50098 6.50392V5.01197H17.501V6.50392C17.501 7.05621 17.9487 7.50392 18.501 7.50392C19.0533 7.50392 19.501 7.05621 19.501 6.50392V5.01197H21.001C23.2132 5.01197 25.001 6.79866 25.001 8.99588V10.4878H2.00098V8.99588C2.00098 6.79866 3.78879 5.01197 6.00098 5.01197ZM2.00098 12.4878H25.001V21.4556C25.001 23.6529 23.2132 25.4395 21.001 25.4395H6.00098C3.78879 25.4395 2.00098 23.6529 2.00098 21.4556V12.4878ZM3.08447 13.98H5.08447V15.9735H3.08447V13.98ZM7.08447 13.98H9.08447V15.9735H7.08447V13.98ZM7.08447 17.9671H5.08447V19.9606H7.08447V17.9671ZM7.08447 21.9542H9.08447V23.9478H7.08447V21.9542ZM13.0845 13.98H11.0845V15.9735H13.0845V13.98ZM9.08447 17.9671H11.0845V19.9606H9.08447V17.9671ZM13.0845 21.9542H11.0845V23.9478H13.0845V21.9542ZM15.0845 13.98H17.0845V15.9735H15.0845V13.98ZM15.0845 17.9671H13.0845V19.9606H15.0845V17.9671ZM17.0845 17.9671H19.0845V19.9606H17.0845V17.9671ZM23.0845 17.9671H21.0845V19.9606H23.0845V17.9671ZM15.0845 21.9542H17.0845V23.9478H15.0845V21.9542ZM21.0845 21.9542H19.0845V23.9478H21.0845V21.9542Z" fill="#B00000"/>
</svg>
